<?xml version="1.0" encoding="utf-8"?>
<svg height="100%" stroke-miterlimit="10" style="fill-rule:nonzero;clip-rule:evenodd;stroke-linecap:round;stroke-linejoin:round;" version="1.1" viewBox="214.487 303.994 238.062 186.554" width="100%" xmlns="http://www.w3.org/2000/svg">
  <g id="Untitled">
    <g opacity="1">
      <g opacity="1"/>
      <path d="M271.678 316.581C269.013 317.422 265.522 319.067 263.665 320.356C260.49 322.56 256.08 326.813 251.41 332.175C246.661 337.628 241.615 345.323 237.883 352.804C235.391 357.801 231.338 368.246 229.732 373.816C226.63 384.569 225.379 393.684 225.864 401.998C226.482 412.579 228.346 419.194 231.507 422.031C233.264 423.607 233.696 423.79 236.03 423.943C237.755 424.056 238.343 424 239.816 423.584C242.159 422.922 247.351 420.358 249.208 418.945C253.157 415.944 259.155 410.12 262.745 405.802C267.103 400.561 273.926 390.548 278.614 382.512C280.393 379.463 284.681 369.855 284.681 368.918C284.681 368.805 283.403 371.256 281.841 374.364C275.862 386.262 267.2 399.355 259.664 407.888C257.332 410.528 251.428 416.003 248.678 418.074C246.332 419.842 242.151 421.878 239.474 422.556C232.481 424.328 229.31 420.452 227.47 407.887C227.167 405.82 227.084 403.788 227.083 398.45C227.081 391.966 227.11 391.483 227.699 388.136C229.045 380.484 230.87 373.399 232.921 367.874C236.607 357.941 238.715 353.211 241.933 347.647C247.058 338.787 250.762 333.949 257.906 326.787C262.333 322.348 264.465 320.714 267.893 319.13C273.399 316.586 276.644 316.437 279.453 318.599C282.32 320.805 284.387 325.992 285.564 333.931C286.569 340.714 286.757 343.831 286.757 353.682C286.756 361.977 286.696 363.662 286.263 367.617C285.424 375.276 284.184 382.582 282.04 392.487L280.955 397.497L278.569 401.485C270.547 414.887 268.806 418.215 264.719 427.967C259.262 440.986 253.584 458.526 252.55 465.555C252.09 468.681 252.111 469.843 252.659 471.646C253.268 473.654 253.441 473.771 254.783 473.091C256.542 472.199 256.688 471.988 261.144 463.847C264.635 457.469 265.238 455.931 271.036 438.61C276.807 421.373 277.869 417.638 281.057 403.389L282.505 396.917L284.072 394.392C290.183 384.549 297.331 374.763 303.235 368.159C306.166 364.88 318.683 352.286 321.663 349.617C326.297 345.467 330.253 342.305 335.436 338.606C344.924 331.835 350.129 328.97 353.763 328.519C355.211 328.339 355.427 328.363 355.996 328.769C357.559 329.882 357.227 334.235 355.184 339.411C353.356 344.044 349.734 350.976 345.609 357.742C343.73 360.822 342.953 361.915 328.146 382.32C324.875 386.827 318.723 393.258 313.978 397.128C310.013 400.363 309.26 401.139 309.26 401.993C309.26 402.548 309.354 402.729 309.644 402.729C310.64 402.727 312.854 400.881 315.788 397.608C318.213 394.902 320.913 392.817 325.28 390.275C327.96 388.715 332.805 387.019 339.215 385.396C347.867 383.205 352.233 382.866 369.61 383.039C381.841 383.16 389.24 382.977 393.54 382.446C409.191 380.513 424.205 374.636 434.425 366.443C437.173 364.24 445.623 355.905 445.496 355.524C445.445 355.371 445.293 355.208 445.157 355.163C445.022 355.118 443.3 356.644 441.331 358.554C433.708 365.945 429.874 368.785 422.55 372.467C412.796 377.37 401.87 380.519 391.036 381.549C388.424 381.797 383.131 381.911 369.859 382.003C360.126 382.072 351.095 382.223 349.789 382.341C346.492 382.638 344.25 383.048 339.545 384.212C332.597 385.931 326.998 387.978 323.715 389.998C322.269 390.888 322.169 390.832 323.235 389.727C325.273 387.614 327.865 384.451 329.845 381.662C331.002 380.033 334.815 374.749 338.318 369.921C341.82 365.093 345.291 360.156 346.029 358.949C351.934 349.304 356.255 340.577 357.383 336.016C357.877 334.019 358.063 331.894 357.874 330.387C357.733 329.258 357.605 329.002 356.804 328.257L355.894 327.41L354.142 327.553C349.809 327.905 341.954 332.398 330.218 341.237C321.264 347.981 306.391 362.506 298.265 372.445C294.259 377.344 289.038 384.619 285.229 390.608C284.287 392.088 283.482 393.264 283.44 393.222C283.397 393.179 283.952 390.19 284.674 386.58C286.054 379.682 287.055 373.229 287.685 367.178C288.163 362.587 288.234 347.42 287.8 342.709C286.727 331.067 285.374 325.397 282.522 320.581C281.726 319.238 281.188 318.628 280.062 317.793C278.212 316.421 277.78 316.27 275.373 316.146C273.682 316.059 273.121 316.125 271.678 316.581M283.365 393.622C283.365 393.683 283.315 393.732 283.255 393.732C283.194 393.732 283.145 393.683 283.145 393.622C283.145 393.562 283.194 393.512 283.255 393.512C283.315 393.512 283.365 393.562 283.365 393.622M278.975 406.271C276.335 417.819 275.111 422.028 269.438 439.049C263.643 456.434 263.397 457.065 259.938 463.408C256.01 470.612 255.183 471.857 254.326 471.857C253.708 471.857 253.45 470.414 253.581 467.702C253.8 463.188 254.969 458.652 259.099 446.291C263.44 433.303 268.118 421.922 272.046 414.799C274.085 411.104 279.927 401.194 280.016 401.283C280.06 401.327 279.592 403.572 278.975 406.271" fill="#300904" fill-rule="nonzero" opacity="1" stroke="#242526" stroke-linecap="butt" stroke-linejoin="round" stroke-width="6"/>
    </g>
  </g>
</svg>